<?xml version="1.0" encoding="UTF-8" standalone="no"?>
<!-- Created with Inkscape (http://www.inkscape.org/) -->

<svg
   width="25.698219mm"
   height="23.138762mm"
   viewBox="0 0 25.698219 23.138761"
   version="1.1"
   id="svg5"
   inkscape:version="1.1.1 (3bf5ae0d25, 2021-09-20, custom)"
   sodipodi:docname="collect.svg"
   inkscape:export-filename="/home/quan/ssa-new/game/collect.png"
   inkscape:export-xdpi="96"
   inkscape:export-ydpi="96"
   xmlns:inkscape="http://www.inkscape.org/namespaces/inkscape"
   xmlns:sodipodi="http://sodipodi.sourceforge.net/DTD/sodipodi-0.dtd"
   xmlns="http://www.w3.org/2000/svg"
   xmlns:svg="http://www.w3.org/2000/svg">
  <sodipodi:namedview
     id="namedview7"
     pagecolor="#505050"
     bordercolor="#eeeeee"
     borderopacity="1"
     inkscape:pageshadow="0"
     inkscape:pageopacity="0"
     inkscape:pagecheckerboard="0"
     inkscape:document-units="mm"
     showgrid="false"
     inkscape:snap-global="false"
     inkscape:zoom="9.3870485"
     inkscape:cx="57.31301"
     inkscape:cy="27.644472"
     inkscape:window-width="930"
     inkscape:window-height="490"
     inkscape:window-x="970"
     inkscape:window-y="530"
     inkscape:window-maximized="1"
     inkscape:current-layer="layer1" />
  <defs
     id="defs2" />
  <g
     inkscape:label="Layer 1"
     inkscape:groupmode="layer"
     id="layer1"
     transform="translate(-107.82892,-82.158247)">
    <path
       style="fill:none;stroke:#000000;stroke-width:1.5875;stroke-linecap:round;stroke-linejoin:round;stroke-miterlimit:4;stroke-dasharray:none;stroke-opacity:0.5"
       d="m 132.24754,85.631126 c -0.13831,0.296932 -4.62443,-2.847712 -4.66216,-2.67004 -0.2394,1.127318 4.98415,4.050955 4.88892,3.886027 -0.12133,-0.210088 -5.90833,-3.231589 -6.19756,-3.064649 -0.07,0.0404 0.81441,0.653602 0.85669,0.680728 1.88222,1.207585 3.61866,2.615064 5.42255,3.914728 0.94113,0.67807 -2.01429,-1.154698 -3.05761,-1.661717 -1.47799,-0.718253 -4.5863,-2.454818 -4.8068,-2.206517 -0.15142,0.170504 2.09191,1.605917 3.07585,2.327529 0,0 3.91217,2.390184 4.79851,3.925003 0.16984,0.294125 -0.54258,-0.409189 -0.82271,-0.601301 -1.55005,-1.062959 -3.24005,-2.183554 -4.92725,-3.005593 -1.08534,-0.528796 -2.22169,-1.018132 -3.28874,-1.567935 -0.16895,-0.08706 -0.66894,-0.33903 -0.53062,-0.208707 1.66999,1.573354 4.03264,2.811489 5.93728,4.106196 0.8974,0.610022 3.55617,2.391052 2.52422,2.05543 -1.9124,-0.621984 -3.9563,-2.290346 -5.78275,-3.231449 -0.89325,-0.46026 -3.38964,-1.990096 -2.76366,-1.204169 0.69267,0.869664 2.054,1.431024 2.92893,2.138733 0.84435,0.682975 1.75249,1.321389 2.62423,1.971297 5.0424,3.759248 -5.08267,-3.139352 -5.26619,-2.275175 -0.22509,1.059976 5.60061,3.930797 4.76529,4.412947 -0.50428,0.291075 -4.2897,-2.247528 -4.83372,-2.617225"
       id="path3390"
       sodipodi:nodetypes="cccscssscccsccscscsccsc" />
    <path
       id="path1337"
       style="fill:none;stroke:#000000;stroke-width:1.5875;stroke-linecap:round;stroke-linejoin:round;stroke-miterlimit:4;stroke-dasharray:none;stroke-opacity:0.5"
       d="m 110.37576,99.331724 c -3.34207,7.061586 -1.7967,5.492816 3.74911,3.373236 m 7.08343,-8.913984 c -3.78545,2.461077 -8.48113,5.626688 -10.92826,8.899634" />
    <path
       id="path861"
       style="fill:none;stroke:#ffffff;stroke-width:0.529167;stroke-linecap:round;stroke-linejoin:round;stroke-miterlimit:4;stroke-dasharray:none;stroke-opacity:1"
       d="m 110.37576,99.331724 c -3.34207,7.061586 -1.7967,5.492816 3.74911,3.373236 m 7.08343,-8.913984 c -3.78545,2.461077 -8.48113,5.626688 -10.92826,8.899634" />
    <path
       style="fill:none;stroke:#00a1ff;stroke-width:0.529167;stroke-linecap:round;stroke-linejoin:round;stroke-miterlimit:4;stroke-dasharray:none;stroke-opacity:1"
       d="m 132.24754,85.631126 c -0.13831,0.296932 -4.62443,-2.847712 -4.66216,-2.67004 -0.2394,1.127318 4.98415,4.050955 4.88892,3.886027 -0.12133,-0.210088 -5.90833,-3.231589 -6.19756,-3.064649 -0.07,0.0404 0.81441,0.653602 0.85669,0.680728 1.88222,1.207585 3.61866,2.615064 5.42255,3.914728 0.94113,0.67807 -2.01429,-1.154698 -3.05761,-1.661717 -1.47799,-0.718253 -4.5863,-2.454818 -4.8068,-2.206517 -0.15142,0.170504 2.09191,1.605917 3.07585,2.327529 0,0 3.91217,2.390184 4.79851,3.925003 0.16984,0.294125 -0.54258,-0.409189 -0.82271,-0.601301 -1.55005,-1.062959 -3.24005,-2.183554 -4.92725,-3.005593 -1.08534,-0.528796 -2.22169,-1.018132 -3.28874,-1.567935 -0.16895,-0.08706 -0.66894,-0.33903 -0.53062,-0.208707 1.66999,1.573354 4.03264,2.811489 5.93728,4.106196 0.8974,0.610022 3.55617,2.391052 2.52422,2.05543 -1.9124,-0.621984 -3.9563,-2.290346 -5.78275,-3.231449 -0.89325,-0.46026 -3.38964,-1.990096 -2.76366,-1.204169 0.69267,0.869664 2.054,1.431024 2.92893,2.138733 0.84435,0.682975 1.75249,1.321389 2.62423,1.971297 5.0424,3.759248 -5.08267,-3.139352 -5.26619,-2.275175 -0.22509,1.059976 5.60061,3.930797 4.76529,4.412947 -0.50428,0.291075 -4.2897,-2.247528 -4.83372,-2.617225"
       id="path2541"
       sodipodi:nodetypes="cccscssscccsccscscsccsc" />
  </g>
</svg>
