<?xml version="1.0" encoding="UTF-8" standalone="no"?>
<!-- Created with Inkscape (http://www.inkscape.org/) -->

<svg
   width="12.09351mm"
   height="35.660442mm"
   viewBox="0 0 12.09351 35.660442"
   version="1.1"
   id="svg5"
   inkscape:version="1.1.1 (3bf5ae0d25, 2021-09-20, custom)"
   sodipodi:docname="exclamation.svg"
   inkscape:export-filename="/home/quan/ssa-new/game/exclamation.png"
   inkscape:export-xdpi="96"
   inkscape:export-ydpi="96"
   xmlns:inkscape="http://www.inkscape.org/namespaces/inkscape"
   xmlns:sodipodi="http://sodipodi.sourceforge.net/DTD/sodipodi-0.dtd"
   xmlns="http://www.w3.org/2000/svg"
   xmlns:svg="http://www.w3.org/2000/svg">
  <sodipodi:namedview
     id="namedview7"
     pagecolor="#bababa"
     bordercolor="#eeeeee"
     borderopacity="1"
     inkscape:pageshadow="0"
     inkscape:pageopacity="0"
     inkscape:pagecheckerboard="0"
     inkscape:document-units="mm"
     showgrid="false"
     inkscape:zoom="5.1883988"
     inkscape:cx="9.1550403"
     inkscape:cy="103.40377"
     inkscape:window-width="1880"
     inkscape:window-height="1000"
     inkscape:window-x="20"
     inkscape:window-y="20"
     inkscape:window-maximized="1"
     inkscape:current-layer="layer1" />
  <defs
     id="defs2" />
  <g
     inkscape:label="Layer 1"
     inkscape:groupmode="layer"
     id="layer1"
     transform="translate(-88.174032,-94.308869)">
    <path
       id="path39620"
       style="fill:none;stroke:#000000;stroke-width:1.5875;stroke-linecap:round;stroke-linejoin:round;stroke-miterlimit:4;stroke-dasharray:none;stroke-opacity:0.5"
       d="m 90.862022,117.98119 c -0.148998,-0.82812 -0.272524,-1.66054 -0.441346,-2.48532 -0.291619,-1.42473 -0.722498,-2.85473 -0.895305,-4.30108 -0.276014,-2.31013 -0.285269,-4.66945 -0.252198,-6.99068 0.0093,-0.65447 -0.06177,-1.30845 -0.01262,-1.96329 0.05225,-0.69592 0.161435,-1.38975 0.18915,-2.08812 0.02622,-0.66056 -0.304127,-1.273605 -0.252198,-1.97464 0.03353,-0.452596 0.32234,-0.810281 0.466567,-1.225637 0.153302,-0.441486 0.226978,-1.069043 0.226978,-1.532046 0,-0.149672 -0.05044,0.295061 -0.07566,0.442593 -0.08348,0.488307 -0.146494,0.981802 -0.06305,1.4753 0.229965,1.360022 0.442029,2.74351 0.580056,4.11951 0.112901,1.12547 0.359487,2.21728 0.517007,3.33646 0.402587,2.86036 0.683916,5.71404 0.769207,8.60216 0.03262,1.10463 0.02661,2.20915 0.05044,3.31376 0.0088,0.40771 0.0209,0.8186 -0.01262,1.22563 -0.01143,0.13886 -0.136658,0.5392 -0.08827,0.40855 0.274873,-0.74221 0.615191,-1.48231 0.781818,-2.25835 0.923943,-4.30312 0.518501,-8.71191 1.260993,-13.03942 0.275678,-1.60675 0.349319,-3.234562 0.59267,-4.845811 0.05764,-0.381651 0.145814,-0.789876 0.126097,-1.180245 -0.0024,-0.04959 -0.251872,-0.649867 -0.302638,-0.590122 -0.541353,0.63712 -0.525796,1.81527 -0.580057,2.587456 -0.161792,2.302402 -0.236738,4.603852 -0.264811,6.911232 -0.03829,3.14751 -0.509008,6.37161 -0.151317,9.4987 0.05228,0.45705 0.111982,2.09145 0.743987,2.28104 0.240403,0.0721 0.592301,-0.99386 0.630497,-1.11215 0.244451,-0.75705 0.389797,-1.59007 0.529619,-2.36049 0.288009,-1.58692 0.467301,-3.19192 0.756594,-4.77771 0.460611,-2.52491 1.223045,-4.97939 1.525802,-7.5354 0.141671,-1.19606 -0.07278,-2.338453 -0.226978,-3.518037 -0.02814,-0.215217 -0.03783,-0.429924 -0.03783,-0.646866 0,-0.04539 0.0039,-0.181409 0,-0.136181 -0.183298,2.144964 -0.315457,4.283554 -0.428736,6.434594 -0.0864,1.6406 -0.26199,3.26184 -0.466566,4.8912 -0.164291,1.30852 -0.269494,2.61854 -0.277421,3.93794 -0.0065,1.08936 0,2.17896 0,3.26836 0,0.3148 0.03882,0.54139 0.07566,0.83979 v 0.13618 c 0.373264,-0.16797 1.151133,-3.01963 1.273604,-3.41589 1.281017,-4.14486 2.995593,-9.21366 2.080638,-13.58416 -0.08667,-0.413983 -0.439304,-0.751596 -0.617884,-1.134845 -0.08353,-0.179258 -0.203417,-0.275191 -0.226978,-0.476639 -0.0049,-0.04154 -0.01262,-0.166656 -0.01262,-0.124833 0,1.185394 -0.248208,2.620647 -0.403518,3.801747 -0.298136,2.26722 -0.61798,4.54454 -1.008796,6.79775 -0.285967,1.64872 -0.690756,3.27357 -0.807035,4.94794 -0.01937,0.27895 -0.01373,2.55135 -0.2522,2.7123 -0.03123,0.0211 -0.05117,-0.16338 -0.08827,-0.63552 -0.125087,-1.59208 0.0355,0.12935 -0.189151,-2.81443 -0.320288,-4.19689 -0.746678,-8.38242 -0.983578,-12.58548 -0.05958,-1.057167 -0.183718,-2.012244 0.05044,-3.052749 0.189878,-0.843736 0.01984,-0.0051 0.100881,-0.748999 0.0088,-0.08072 0.07671,-0.31515 0.05044,-0.238318 -0.504857,1.476581 -0.498115,3.234396 -0.567447,4.789066 -0.160356,3.59583 0.166363,7.27422 -0.390908,10.84916 -0.183645,1.17812 -0.567277,2.29079 -0.693547,3.48399 -0.04664,0.44075 -0.143587,0.86533 -0.201758,1.30508 -0.01048,0.0792 0.0026,0.31323 -0.02522,0.23832 -0.210944,-0.56958 0.04946,-1.65516 -0.03783,-2.25835 -0.68175,-4.71083 -1.48566,-9.16459 -0.996188,-13.94731 0.08371,-0.81791 0.209089,-1.697799 0.1261,-2.519364 -0.03755,-0.371787 -0.228849,-0.715233 -0.315251,-1.078106 -0.10473,-0.439851 -0.178472,-0.886584 -0.277416,-1.327774 -0.05512,-0.245777 -0.106553,-0.492393 -0.16393,-0.737653 -0.0154,-0.06588 -0.02278,-0.247288 -0.06305,-0.192924 -0.111538,0.150556 -0.09379,0.362821 -0.138713,0.544727 -0.601433,2.156794 -0.391586,4.453914 -0.327822,6.672914 0.06523,2.26987 -0.291411,4.52627 -0.479177,6.78641 -0.146409,1.7623 0.2342,3.47276 0.479177,5.20896 0.104314,0.73929 0.227555,1.47711 0.453957,2.19025 0.09955,0.31359 0.174512,0.63117 0.239589,0.95328 0.0268,0.13263 0.03947,0.48979 0.126098,0.38585 0.477846,-0.57339 0.626086,-2.92303 0.731377,-3.62017 0.495965,-3.28386 0.762237,-6.44598 0.781818,-9.75971 0.008,-1.35763 0.09803,-2.65076 -0.08827,-4.00602 -0.08538,-0.621135 -0.332259,-1.21387 -0.491788,-1.815761 -0.266879,-1.006912 -0.251611,-1.951076 -0.27742,-2.984653 -0.003,-0.118258 -0.04573,-0.635517 -0.264806,-0.635517 -0.248055,0 0.007,1.451445 0.02522,1.702275 0.140108,1.927399 0.03458,3.877866 0.08827,5.810436 0.110423,3.9749 -0.51635,8.08758 0.18915,12.01805 0.217913,1.21404 0.334362,2.42082 0.756595,3.58613 0.03256,0.0899 0.209803,0.93985 0.416128,0.86248 0.593115,-0.22241 1.007124,-4.18437 1.034015,-4.50535 0.349126,-4.16729 0.988148,-8.32027 1.260996,-12.49469 0.04222,-0.64596 0.145957,-2.04495 -0.05044,-2.655552 -0.07008,-0.217884 -0.220836,-0.410602 -0.239588,-0.646866 -0.01884,-0.237305 0.04482,-0.564112 -0.02522,-0.805742 -0.07792,-0.268794 -0.4385,-0.505759 -0.290031,-0.839788 0.08899,-0.200209 0.455777,-0.205889 0.630497,-0.363152 0.0027,-0.0024 0.02648,0.08769 0.02522,0.102135 -0.03916,0.449403 -0.05492,0.539408 -0.08827,0.964623 -0.07888,1.005743 -0.154585,2.012447 -0.226979,3.018702 -0.05719,0.79499 -0.114226,1.58872 -0.176539,2.38318 -0.163719,2.08734 -0.229653,4.18365 -0.277417,6.27572 -0.05096,2.23215 0.136422,4.48929 0.01261,6.71831 -0.02361,0.42501 -0.06452,0.85707 -0.100877,1.28238 -0.02412,0.28214 -0.322695,0.61858 -0.290031,0.94193 m -1.648317,4.17566 c -2.00987,-0.81676 -4.544023,1.55792 -3.776318,3.72939 1.963594,5.55407 9.267801,1.86107 7.786587,-2.31583 -1.741877,-4.91194 -7.797512,-0.13642 -6.149076,3.81963 1.158926,2.78127 6.565305,-1.37265 5.012825,-3.39857 -0.267271,-0.34878 -0.705201,-0.56802 -1.069395,-0.78197 -2.243463,-1.31798 -1.651421,-1.74831 -2.43958,0.69175 -0.52773,1.6338 0.675711,2.30249 2.272487,2.01507 2.544538,-0.45801 -0.995629,-2.61886 -2.23906,-1.65417 -1.032192,0.80081 -0.605203,4.43102 0.935715,3.24819 4.070836,-3.12484 -7.288643,-5.13259 -3.609226,-1.98501 3.710136,3.17386 6.755674,-0.38775 6.416421,-1.50378 -0.29624,-0.97453 -0.997858,-2.10599 -1.63753,-2.88728 -0.161147,-0.19682 -1.622956,-0.52026 -1.971715,-0.15037 -2.930815,3.10837 5.356452,9.98274 0.133681,2.58651 -1.35307,-1.91615 0.05518,-0.022 -0.334185,0.78197 -0.3576,0.73842 -0.182205,0.55464 0.401026,1.20303"
       sodipodi:nodetypes="ccccccccsccccssccsscccccscsscscscsscsccccscscssccccscccsssccccssccccsscsccccscsccscssssccsccscssssccsssscscscssscscc" />
    <path
       id="path1015"
       style="fill:none;stroke:#ffffff;stroke-width:0.529167;stroke-linecap:round;stroke-linejoin:round;stroke-miterlimit:4;stroke-dasharray:none;stroke-opacity:1"
       d="m 90.862022,117.98119 c -0.148998,-0.82812 -0.272524,-1.66054 -0.441346,-2.48532 -0.291619,-1.42473 -0.722498,-2.85473 -0.895305,-4.30108 -0.276014,-2.31013 -0.285269,-4.66945 -0.252198,-6.99068 0.0093,-0.65447 -0.06177,-1.30845 -0.01262,-1.96329 0.05225,-0.69592 0.161435,-1.38975 0.18915,-2.08812 0.02622,-0.66056 -0.304127,-1.273605 -0.252198,-1.97464 0.03353,-0.452596 0.32234,-0.810281 0.466567,-1.225637 0.153302,-0.441486 0.226978,-1.069043 0.226978,-1.532046 0,-0.149672 -0.05044,0.295061 -0.07566,0.442593 -0.08348,0.488307 -0.146494,0.981802 -0.06305,1.4753 0.229965,1.360022 0.442029,2.74351 0.580056,4.11951 0.112901,1.12547 0.359487,2.21728 0.517007,3.33646 0.402587,2.86036 0.683916,5.71404 0.769207,8.60216 0.03262,1.10463 0.02661,2.20915 0.05044,3.31376 0.0088,0.40771 0.0209,0.8186 -0.01262,1.22563 -0.01143,0.13886 -0.136658,0.5392 -0.08827,0.40855 0.274873,-0.74221 0.615191,-1.48231 0.781818,-2.25835 0.923943,-4.30312 0.518501,-8.71191 1.260993,-13.03942 0.275678,-1.60675 0.349319,-3.234562 0.59267,-4.845811 0.05764,-0.381651 0.145814,-0.789876 0.126097,-1.180245 -0.0024,-0.04959 -0.251872,-0.649867 -0.302638,-0.590122 -0.541353,0.63712 -0.525796,1.81527 -0.580057,2.587456 -0.161792,2.302402 -0.236738,4.603852 -0.264811,6.911232 -0.03829,3.14751 -0.509008,6.37161 -0.151317,9.4987 0.05228,0.45705 0.111982,2.09145 0.743987,2.28104 0.240403,0.0721 0.592301,-0.99386 0.630497,-1.11215 0.244451,-0.75705 0.389797,-1.59007 0.529619,-2.36049 0.288009,-1.58692 0.467301,-3.19192 0.756594,-4.77771 0.460611,-2.52491 1.223045,-4.97939 1.525802,-7.5354 0.141671,-1.19606 -0.07278,-2.338453 -0.226978,-3.518037 -0.02814,-0.215217 -0.03783,-0.429924 -0.03783,-0.646866 0,-0.04539 0.0039,-0.181409 0,-0.136181 -0.183298,2.144964 -0.315457,4.283554 -0.428736,6.434594 -0.0864,1.6406 -0.26199,3.26184 -0.466566,4.8912 -0.164291,1.30852 -0.269494,2.61854 -0.277421,3.93794 -0.0065,1.08936 0,2.17896 0,3.26836 0,0.3148 0.03882,0.54139 0.07566,0.83979 v 0.13618 c 0.373264,-0.16797 1.151133,-3.01963 1.273604,-3.41589 1.281017,-4.14486 2.995593,-9.21366 2.080638,-13.58416 -0.08667,-0.413983 -0.439304,-0.751596 -0.617884,-1.134845 -0.08353,-0.179258 -0.203417,-0.275191 -0.226978,-0.476639 -0.0049,-0.04154 -0.01262,-0.166656 -0.01262,-0.124833 0,1.185394 -0.248208,2.620647 -0.403518,3.801747 -0.298136,2.26722 -0.61798,4.54454 -1.008796,6.79775 -0.285967,1.64872 -0.690756,3.27357 -0.807035,4.94794 -0.01937,0.27895 -0.01373,2.55135 -0.2522,2.7123 -0.03123,0.0211 -0.05117,-0.16338 -0.08827,-0.63552 -0.125087,-1.59208 0.0355,0.12935 -0.189151,-2.81443 -0.320288,-4.19689 -0.746678,-8.38242 -0.983578,-12.58548 -0.05958,-1.057167 -0.183718,-2.012244 0.05044,-3.052749 0.189878,-0.843736 0.01984,-0.0051 0.100881,-0.748999 0.0088,-0.08072 0.07671,-0.31515 0.05044,-0.238318 -0.504857,1.476581 -0.498115,3.234396 -0.567447,4.789066 -0.160356,3.59583 0.166363,7.27422 -0.390908,10.84916 -0.183645,1.17812 -0.567277,2.29079 -0.693547,3.48399 -0.04664,0.44075 -0.143587,0.86533 -0.201758,1.30508 -0.01048,0.0792 0.0026,0.31323 -0.02522,0.23832 -0.210944,-0.56958 0.04946,-1.65516 -0.03783,-2.25835 -0.68175,-4.71083 -1.48566,-9.16459 -0.996188,-13.94731 0.08371,-0.81791 0.209089,-1.697799 0.1261,-2.519364 -0.03755,-0.371787 -0.228849,-0.715233 -0.315251,-1.078106 -0.10473,-0.439851 -0.178472,-0.886584 -0.277416,-1.327774 -0.05512,-0.245777 -0.106553,-0.492393 -0.16393,-0.737653 -0.0154,-0.06588 -0.02278,-0.247288 -0.06305,-0.192924 -0.111538,0.150556 -0.09379,0.362821 -0.138713,0.544727 -0.601433,2.156794 -0.391586,4.453914 -0.327822,6.672914 0.06523,2.26987 -0.291411,4.52627 -0.479177,6.78641 -0.146409,1.7623 0.2342,3.47276 0.479177,5.20896 0.104314,0.73929 0.227555,1.47711 0.453957,2.19025 0.09955,0.31359 0.174512,0.63117 0.239589,0.95328 0.0268,0.13263 0.03947,0.48979 0.126098,0.38585 0.477846,-0.57339 0.626086,-2.92303 0.731377,-3.62017 0.495965,-3.28386 0.762237,-6.44598 0.781818,-9.75971 0.008,-1.35763 0.09803,-2.65076 -0.08827,-4.00602 -0.08538,-0.621135 -0.332259,-1.21387 -0.491788,-1.815761 -0.266879,-1.006912 -0.251611,-1.951076 -0.27742,-2.984653 -0.003,-0.118258 -0.04573,-0.635517 -0.264806,-0.635517 -0.248055,0 0.007,1.451445 0.02522,1.702275 0.140108,1.927399 0.03458,3.877866 0.08827,5.810436 0.110423,3.9749 -0.51635,8.08758 0.18915,12.01805 0.217913,1.21404 0.334362,2.42082 0.756595,3.58613 0.03256,0.0899 0.209803,0.93985 0.416128,0.86248 0.593115,-0.22241 1.007124,-4.18437 1.034015,-4.50535 0.349126,-4.16729 0.988148,-8.32027 1.260996,-12.49469 0.04222,-0.64596 0.145957,-2.04495 -0.05044,-2.655552 -0.07008,-0.217884 -0.220836,-0.410602 -0.239588,-0.646866 -0.01884,-0.237305 0.04482,-0.564112 -0.02522,-0.805742 -0.07792,-0.268794 -0.4385,-0.505759 -0.290031,-0.839788 0.08899,-0.200209 0.455777,-0.205889 0.630497,-0.363152 0.0027,-0.0024 0.02648,0.08769 0.02522,0.102135 -0.03916,0.449403 -0.05492,0.539408 -0.08827,0.964623 -0.07888,1.005743 -0.154585,2.012447 -0.226979,3.018702 -0.05719,0.79499 -0.114226,1.58872 -0.176539,2.38318 -0.163719,2.08734 -0.229653,4.18365 -0.277417,6.27572 -0.05096,2.23215 0.136422,4.48929 0.01261,6.71831 -0.02361,0.42501 -0.06452,0.85707 -0.100877,1.28238 -0.02412,0.28214 -0.322695,0.61858 -0.290031,0.94193 m -1.648317,4.17566 c -2.00987,-0.81676 -4.544023,1.55792 -3.776318,3.72939 1.963594,5.55407 9.267801,1.86107 7.786587,-2.31583 -1.741877,-4.91194 -7.797512,-0.13642 -6.149076,3.81963 1.158926,2.78127 6.565305,-1.37265 5.012825,-3.39857 -0.267271,-0.34878 -0.705201,-0.56802 -1.069395,-0.78197 -2.243463,-1.31798 -1.651421,-1.74831 -2.43958,0.69175 -0.52773,1.6338 0.675711,2.30249 2.272487,2.01507 2.544538,-0.45801 -0.995629,-2.61886 -2.23906,-1.65417 -1.032192,0.80081 -0.605203,4.43102 0.935715,3.24819 4.070836,-3.12484 -7.288643,-5.13259 -3.609226,-1.98501 3.710136,3.17386 6.755674,-0.38775 6.416421,-1.50378 -0.29624,-0.97453 -0.997858,-2.10599 -1.63753,-2.88728 -0.161147,-0.19682 -1.622956,-0.52026 -1.971715,-0.15037 -2.930815,3.10837 5.97566,9.50408 0.133681,2.58651 -0.927958,-1.09881 0.05518,-0.022 -0.334185,0.78197 -0.3576,0.73842 -0.182205,0.55464 0.401026,1.20303"
       sodipodi:nodetypes="ccccccccsccccssccsscccccscsscscscsscsccccscscssccccscccsssccccssccccsscsccccscsccscssssccsccscssssccsssscscscssscscc" />
  </g>
</svg>
