<?xml version="1.0" encoding="UTF-8" standalone="no"?>
<!-- Created with Inkscape (http://www.inkscape.org/) -->

<svg
   width="256"
   height="220"
   viewBox="0 0 67.733332 58.208335"
   version="1.1"
   id="svg5"
   inkscape:version="1.1.1 (3bf5ae0d25, 2021-09-20, custom)"
   sodipodi:docname="fire-control.svg"
   inkscape:export-filename="/home/quan/ssa-new/game/fire-control.png"
   inkscape:export-xdpi="96"
   inkscape:export-ydpi="96"
   xmlns:inkscape="http://www.inkscape.org/namespaces/inkscape"
   xmlns:sodipodi="http://sodipodi.sourceforge.net/DTD/sodipodi-0.dtd"
   xmlns:xlink="http://www.w3.org/1999/xlink"
   xmlns="http://www.w3.org/2000/svg"
   xmlns:svg="http://www.w3.org/2000/svg">
  <sodipodi:namedview
     id="namedview7"
     pagecolor="#ffffff"
     bordercolor="#eeeeee"
     borderopacity="1"
     inkscape:pageshadow="0"
     inkscape:pageopacity="0"
     inkscape:pagecheckerboard="0"
     inkscape:document-units="mm"
     showgrid="false"
     units="px"
     inkscape:zoom="5.0461102"
     inkscape:cx="78.278115"
     inkscape:cy="137.43259"
     inkscape:window-width="1880"
     inkscape:window-height="1000"
     inkscape:window-x="20"
     inkscape:window-y="20"
     inkscape:window-maximized="1"
     inkscape:current-layer="g15319"
     inkscape:snap-global="false" />
  <defs
     id="defs2">
    <linearGradient
       inkscape:collect="always"
       id="linearGradient15342">
      <stop
         style="stop-color:#ffffff;stop-opacity:0.27142721"
         offset="0"
         id="stop15338" />
      <stop
         style="stop-color:#ffffff;stop-opacity:0.78547531"
         offset="1"
         id="stop15340" />
    </linearGradient>
    <inkscape:path-effect
       effect="fillet_chamfer"
       id="path-effect70528"
       is_visible="true"
       lpeversion="1"
       satellites_param="F,0,0,1,0,4.5349499,0,1 @ F,0,0,1,0,4.5349499,0,1 @ F,0,0,1,0,4.5349499,0,1 @ F,0,1,1,0,2.5636612,0,1 @ F,0,0,1,0,4.5349499,0,1 @ F,0,0,1,0,4.5349499,0,1 @ F,0,1,1,0,2.5636612,0,1 @ F,0,0,1,0,4.5349499,0,1 @ F,0,0,1,0,4.5349499,0,1 @ F,0,0,1,0,4.5349499,0,1"
       unit="px"
       method="auto"
       mode="F"
       radius="0"
       chamfer_steps="1"
       flexible="false"
       use_knot_distance="true"
       apply_no_radius="true"
       apply_with_radius="true"
       only_selected="false"
       hide_knots="false" />
    <inkscape:path-effect
       effect="fillet_chamfer"
       id="path-effect5671"
       is_visible="true"
       lpeversion="1"
       satellites_param="F,0,0,1,0,4.5349499,0,1 @ F,0,0,1,0,4.5349499,0,1 @ F,0,0,1,0,4.5349499,0,1 @ F,0,1,1,0,2.5636612,0,1 @ F,0,0,1,0,4.5349499,0,1 @ F,0,0,1,0,4.5349499,0,1 @ F,0,1,1,0,2.5636612,0,1 @ F,0,0,1,0,4.5349499,0,1 @ F,0,0,1,0,4.5349499,0,1 @ F,0,0,1,0,4.5349499,0,1"
       unit="px"
       method="auto"
       mode="F"
       radius="0"
       chamfer_steps="1"
       flexible="false"
       use_knot_distance="true"
       apply_no_radius="true"
       apply_with_radius="true"
       only_selected="false"
       hide_knots="false" />
    <inkscape:path-effect
       effect="fillet_chamfer"
       id="path-effect5208"
       is_visible="true"
       lpeversion="1"
       satellites_param="F,0,0,1,0,0,0,1 @ F,0,0,1,0,0,0,1 @ F,0,0,1,0,0,0,1 @ F,0,0,1,0,0,0,1 @ F,0,0,1,0,0,0,1 @ F,0,0,1,0,0,0,1 @ F,0,0,1,0,0,0,1 @ F,0,0,1,0,0,0,1 @ F,0,0,1,0,0,0,1 @ F,0,0,1,0,0,0,1"
       unit="px"
       method="auto"
       mode="F"
       radius="0"
       chamfer_steps="1"
       flexible="false"
       use_knot_distance="true"
       apply_no_radius="true"
       apply_with_radius="true"
       only_selected="false"
       hide_knots="false" />
    <inkscape:path-effect
       effect="fillet_chamfer"
       id="path-effect2449"
       is_visible="true"
       lpeversion="1"
       satellites_param="F,0,0,1,0,0,0,1 @ F,0,0,1,0,1.0583333,0,1 @ F,0,0,1,0,1.0583333,0,1 @ F,0,0,1,0,1.0583333,0,1 @ F,0,0,1,0,1.0583333,0,1 @ F,0,0,1,0,1.0583333,0,1 @ F,0,0,1,0,1.0583333,0,1 @ F,0,0,1,0,1.0583333,0,1 @ F,0,0,1,0,1.0583333,0,1 @ F,0,0,1,0,0,0,1"
       unit="px"
       method="auto"
       mode="F"
       radius="4"
       chamfer_steps="1"
       flexible="false"
       use_knot_distance="true"
       apply_no_radius="true"
       apply_with_radius="true"
       only_selected="false"
       hide_knots="false" />
    <linearGradient
       inkscape:collect="always"
       xlink:href="#linearGradient15342"
       id="linearGradient15344"
       x1="19.765878"
       y1="53.671511"
       x2="32.288315"
       y2="53.629684"
       gradientUnits="userSpaceOnUse" />
  </defs>
  <g
     inkscape:label="Layer 1"
     inkscape:groupmode="layer"
     id="layer1">
    <g
       id="g15323"
       transform="translate(26.246917,-0.90751116)">
      <path
         id="rect4815"
         style="fill:none;stroke:#ffffff;stroke-width:0.529166;stroke-linecap:round;stroke-linejoin:round"
         d="m 12.65784,5.7706957 h 0.768639 c 1.708534,0 3.083997,1.3754625 3.083997,3.0839968 v 4.2499625 c 0,1.708535 -1.375463,3.083997 -3.083997,3.083997 H 12.65784 c -1.708534,0 -3.083996,-1.375462 -3.083996,-3.083997 V 8.8546925 c 0,-1.7085343 1.375462,-3.0839968 3.083996,-3.0839968 z M 9.6534607,10.359291 H 16.472101 M 13.04216,5.8305856 V 10.23853"
         sodipodi:nodetypes="ssssssssscccc" />
      <path
         style="fill:#ffffff;fill-opacity:1;stroke:none;stroke-width:0.264583px;stroke-linecap:butt;stroke-linejoin:miter;stroke-opacity:1"
         d="M 13.04216,5.8305855 V 10.23853 L 9.6534606,10.359291 9.6554186,7.9610647 11.123618,6.066139 Z"
         id="path6027" />
    </g>
    <g
       id="g15319"
       transform="translate(-2.605655,-6.1502732)">
      <path
         style="fill:none;stroke:#ffffff;stroke-width:0.529167;stroke-linecap:round;stroke-linejoin:round;stroke-miterlimit:4;stroke-dasharray:none;stroke-opacity:1"
         d="m 43.018504,51.744867 c 0.862924,-0.592492 1.7503,-1.19412 2.690718,-1.661062 0.106093,-0.05268 0.192196,-0.238739 0.300207,-0.190124 0.06532,0.0294 -0.356431,1.423744 -0.400275,1.621041 -0.207192,0.932312 -0.193515,1.89997 -0.344679,2.841818 -0.120417,0.750271 -0.338561,1.486445 -0.555933,2.211419 -0.06894,0.229928 -0.396793,3.01316 -0.778305,3.242077 -0.08925,0.05355 -0.488071,-0.307493 -0.567055,-0.360233 -0.355699,-0.237503 -1.696816,-1.237768 -1.645561,-1.791147"
         id="path6143" />
      <path
         id="path7387"
         style="fill:none;stroke:url(#linearGradient15344);stroke-width:0.529167;stroke-linecap:round;stroke-linejoin:round;stroke-miterlimit:4;stroke-dasharray:none;stroke-opacity:1"
         d="m 20.641987,58.116361 c 0.43598,-0.196178 0.358628,-0.188089 0.900612,-0.290181 1.35404,-0.255054 2.737194,-0.312058 4.102789,-0.480309 1.709291,-0.210601 3.590922,-0.630407 5.314728,-0.630407 m -9.89562,-3.352141 c 0.281673,-0.08005 0.558909,-0.177795 0.845019,-0.240157 0.83689,-0.182409 1.738444,-0.169677 2.590652,-0.240154 1.873427,-0.154933 3.740186,-0.230984 5.614927,-0.330208 M 20.030461,49.360757 c 0.879241,-0.167529 1.778491,-0.130083 2.66848,-0.130083 0.936105,0 1.875995,0.002 2.816299,0.01725 m 2.683347,0.08972 c 0.573426,0.03117 1.145807,0.07136 1.716372,0.12318 0.721483,0.06553 1.43873,0.16782 2.157023,0.260168 0.03112,0.004 1.036012,0.05946 0.767188,0.140086" />
      <path
         style="fill:none;stroke:#ffffff;stroke-width:0.529167;stroke-linecap:round;stroke-linejoin:round;stroke-miterlimit:4;stroke-dasharray:none;stroke-opacity:1"
         d="m 61.356007,52.523004 c -0.635304,0.422519 -1.059204,0.978797 -1.356476,1.681075 -0.847246,2.001544 1.570445,3.513395 2.979803,1.911229 0.373986,-0.425151 0.858666,-1.18962 0.800542,-1.79115 -0.09336,-0.966224 -0.998109,-2.057437 -2.056953,-1.581012"
         id="path7389" />
      <path
         id="path7403"
         style="opacity:0.668924;fill:none;stroke:#ffffff;stroke-width:0.529167;stroke-linecap:round;stroke-linejoin:round;stroke-miterlimit:4;stroke-dasharray:none;stroke-opacity:1"
         d="m 46.234616,51.922622 c 1.015788,-0.570828 2.115626,-1.080852 3.202175,-1.53098 0.162743,-0.06742 0.333433,-0.113784 0.50034,-0.170108 0.04759,-0.01606 0.179234,-0.09065 0.133424,-0.07005 -0.441666,0.198689 -0.870003,0.682908 -1.223052,1.000641 -0.20537,0.184827 -0.440769,0.347363 -0.633764,0.540348 -0.168627,0.168616 -0.2773,0.494874 -0.478102,0.630401 -0.0495,0.03341 -0.354587,0.332391 -0.333561,0.370237 0.03236,0.05824 0.605915,0.03461 0.667123,0.04003 0.433361,0.03836 0.855755,0.150635 1.289762,0.180115 0.373534,0.02537 1.981766,-0.01537 2.234853,0.440283 0.08542,0.153781 -0.616629,0.433073 -0.733832,0.470299 -0.279794,0.08887 -2.850227,0.562528 -3.002037,1.040668 -0.04476,0.140988 0.710785,0.581141 0.800542,0.660423 0.584055,0.51589 0.88537,1.275575 1.267529,1.941246 0.137941,0.240273 0.267343,0.483727 0.411393,0.720457 0.06147,0.101018 0.304966,0.277001 0.189015,0.300194 -0.10891,0.02177 -2.621962,-1.177645 -3.035397,-1.400895 -0.08408,-0.0454 -0.167757,-0.06613 -0.255731,-0.100062 -0.01146,-0.0044 -0.04475,-0.05466 -0.05559,-0.04003 -0.04427,0.05976 0.03074,0.463571 0.03335,0.480306 0.09506,0.609544 0.200139,1.241787 0.200139,1.861195 0,0.180182 0.0047,0.428861 0,0.430274 -0.329867,0.09896 -0.588936,-0.27544 -0.756071,-0.490316 -0.396743,-0.510074 -0.443132,-1.519518 -0.811665,-1.851186 m 7.293852,-0.740472 c 1.346089,-0.199401 2.720012,-0.0887 4.069432,-0.210137 0.342302,-0.03081 0.843566,-0.251326 1.145222,-0.01 M 54.540264,54.84449 c 1.027395,-0.05661 2.055246,0.179232 3.079872,0.110075 0.137342,-0.0093 0.582633,-0.152025 0.622643,0.01 m -6.137507,-1.811154 c 1.529646,-0.23754 3.084298,-0.120078 4.625369,-0.120078 0.589698,0 1.203203,-0.145505 1.790107,-0.07005" />
      <path
         style="fill:none;stroke:#ffffff;stroke-width:0.529167;stroke-linecap:round;stroke-linejoin:round;stroke-miterlimit:4;stroke-dasharray:none;stroke-opacity:1"
         d="m 40.097109,48.850652 c -2.457719,-0.569682 -5.746882,0.493443 -6.726796,3.001923 -0.866449,2.218023 -0.04552,5.299366 1.979123,6.644254 0.714264,0.474456 1.631805,0.597683 2.468345,0.660424 2.535226,0.190145 4.71721,-1.91456 5.28137,-4.302753 0.206659,-0.874828 0.09333,-1.756788 -0.02224,-2.631688 -0.128188,-0.970426 -0.271624,-1.844837 -1.067392,-2.511608 -0.777188,-0.651205 -1.578652,-0.83989 -2.568414,-0.910584 -0.03327,-0.0024 -0.08702,-0.0307 -0.100066,0"
         id="path7526"
         sodipodi:nodetypes="csssssscc" />
      <path
         style="opacity:0.543514;fill:none;stroke:#ffffff;stroke-width:0.529167;stroke-linecap:round;stroke-linejoin:round;stroke-miterlimit:4;stroke-dasharray:none;stroke-opacity:1"
         d="m 30.837473,50.502895 c -0.27801,0.383745 -0.521908,0.811181 -0.721509,1.256521 m -0.520618,1.701367 c -0.08205,0.504704 -0.09235,0.991422 -0.0165,1.423736 0.05083,0.289751 0.206406,0.735544 0.405125,1.177978 m 0.806811,1.313616 c 0.550692,0.481524 0.907119,0.968287 1.478783,1.280821"
         id="path7757"
         sodipodi:nodetypes="cccsccc" />
      <path
         style="opacity:0.254779;fill:none;stroke:#ffffff;stroke-width:0.529167;stroke-linecap:round;stroke-linejoin:round;stroke-miterlimit:4;stroke-dasharray:none;stroke-opacity:1"
         d="m 26.65345,51.52924 c -0.06893,0.128312 -0.130981,0.258142 -0.1865,0.389336 m -0.383848,1.793377 c -0.01861,0.514102 0.02951,1.037545 0.126786,1.562815 0.07448,0.402187 0.119779,0.718388 0.243875,1.098935"
         id="path7759"
         sodipodi:nodetypes="cccsc" />
      <path
         style="fill:none;stroke:#ffffff;stroke-width:0.529167;stroke-linecap:round;stroke-linejoin:round;stroke-miterlimit:4;stroke-dasharray:none;stroke-opacity:1"
         d="m 19.15784,32.882787 c 0.862924,-0.592492 1.7503,-1.19412 2.690718,-1.661062 0.106093,-0.05268 0.192196,-0.238739 0.300207,-0.190124 0.06532,0.0294 -0.356431,1.423744 -0.400275,1.621041 -0.207192,0.932312 -0.193515,1.89997 -0.344679,2.841818 -0.120417,0.750271 -0.338561,1.486445 -0.555933,2.211419 -0.06894,0.229928 -0.396793,3.01316 -0.778305,3.242077 -0.08925,0.05355 -0.488071,-0.307493 -0.567055,-0.360233 -0.355699,-0.237503 -1.696816,-1.237768 -1.645561,-1.791147"
         id="path8740" />
      <path
         style="fill:none;stroke:#ffffff;stroke-width:0.529167;stroke-linecap:round;stroke-linejoin:round;stroke-miterlimit:4;stroke-dasharray:none;stroke-opacity:1"
         d="m 37.495343,33.660924 c -0.635304,0.422519 -1.059204,0.978797 -1.356476,1.681075 -0.847246,2.001544 1.570445,3.513395 2.979803,1.911229 0.373986,-0.425151 0.858666,-1.18962 0.800542,-1.79115 -0.09336,-0.966224 -0.998109,-2.057437 -2.056953,-1.581012"
         id="path8742" />
      <path
         style="fill:none;stroke:#ffffff;stroke-width:0.529167;stroke-linecap:round;stroke-linejoin:round;stroke-miterlimit:4;stroke-dasharray:none;stroke-opacity:1"
         d="m 16.236445,29.988572 c -2.457719,-0.569682 -5.746882,0.493443 -6.7267959,3.001923 -0.866449,2.218023 -0.04552,5.299366 1.9791229,6.644254 0.714264,0.474456 1.631805,0.597683 2.468345,0.660424 2.535226,0.190145 4.71721,-1.91456 5.28137,-4.302753 0.206659,-0.874828 0.09333,-1.756788 -0.02224,-2.631688 -0.128188,-0.970426 -0.271624,-1.844837 -1.067392,-2.511608 -0.777188,-0.651205 -1.578652,-0.83989 -2.568414,-0.910584 -0.03327,-0.0024 -0.08702,-0.0307 -0.100066,0"
         id="path8744"
         sodipodi:nodetypes="csssssscc" />
      <path
         id="path8885"
         style="opacity:0.390734;fill:none;stroke:#ffffff;stroke-width:0.529167;stroke-linecap:round;stroke-linejoin:round;stroke-miterlimit:4;stroke-dasharray:none;stroke-opacity:1"
         d="m 22.129336,34.041172 c 0.642739,-0.366673 1.355092,-0.599488 1.979123,-1.000641 0.04017,-0.02582 0.282104,-0.263308 0.333562,-0.240155 0.01966,0.0088 -0.408857,0.708973 -0.444746,0.770496 -0.09408,0.161285 -1.367599,1.994607 -1.367599,2.061319 0,0.0855 0.170733,0.01074 0.255733,0.02 0.08018,0.0088 0.263282,0.0541 0.333555,0.08005 0.524661,0.193714 1.09529,0.376557 1.501021,0.650417 0.02522,0.01701 -0.352171,0.28774 -0.355793,0.290184 -0.301067,0.203214 -1.124464,0.710457 -1.467668,0.710457 -0.05501,0 -0.382127,-0.01511 -0.411387,0.02 -0.221237,0.265481 0.322474,1.85125 0.50034,2.171388 0.05747,0.103444 0.189278,0.420209 -0.01111,0.480306 -0.366337,0.109861 -0.550551,-0.484566 -0.700474,-0.700447 -0.115576,-0.166418 -0.300289,-0.282136 -0.444749,-0.420267 -0.156673,-0.149812 -0.310015,-0.268727 -0.455869,-0.430278 -0.01,-0.01106 -0.1685,-0.179438 -0.166778,-0.180116 0.06064,-0.02387 0.126011,-0.03335 0.189016,-0.05003 m 12.897648,-1.99125 c -0.618795,0.0523 -1.10921,-0.503708 -1.701152,-0.530338 -0.550728,-0.02477 -0.900361,0.420121 -1.334244,0.680434 -0.235473,0.141274 -0.652004,0.140089 -0.92285,0.140089 -0.319593,0 -0.771068,-0.07765 -1.000681,-0.330213 -0.109183,-0.120095 -0.155175,-0.270026 -0.32244,-0.320204 -1.015875,-0.304753 -2.278496,-0.120553 -3.168819,0.380243" />
      <path
         style="fill:none;stroke:#ffffff;stroke-width:1.05833;stroke-linecap:round;stroke-linejoin:round;stroke-miterlimit:4;stroke-dasharray:none;stroke-opacity:1"
         d="m 32.418025,43.362551 c -2.588318,-0.419848 -4.28755,0.01873 -6.897498,-0.225559 -0.114506,-0.01072 -2.366803,-0.157353 -2.39051,-0.04002 -0.05916,0.292793 0.743199,1.409319 0.922851,1.681075 0.676111,1.022757 1.273654,2.095542 1.945767,3.122001 0.383712,0.586007 0.762434,1.179089 1.06739,1.811158 0.0066,0.01363 0.511458,1.5406 0.511458,0.950611"
         id="path10315"
         sodipodi:nodetypes="csssscc" />
    </g>
  </g>
</svg>
