<?xml version="1.0" encoding="UTF-8" standalone="no"?>
<!-- Created with Inkscape (http://www.inkscape.org/) -->

<svg
   width="41.809582mm"
   height="18.631817mm"
   viewBox="0 0 41.809582 18.631817"
   version="1.1"
   id="svg5"
   inkscape:version="1.1.1 (3bf5ae0d25, 2021-09-20, custom)"
   sodipodi:docname="multiplayer.svg"
   xmlns:inkscape="http://www.inkscape.org/namespaces/inkscape"
   xmlns:sodipodi="http://sodipodi.sourceforge.net/DTD/sodipodi-0.dtd"
   xmlns="http://www.w3.org/2000/svg"
   xmlns:svg="http://www.w3.org/2000/svg">
  <sodipodi:namedview
     id="namedview7"
     pagecolor="#505050"
     bordercolor="#eeeeee"
     borderopacity="1"
     inkscape:pageshadow="0"
     inkscape:pageopacity="0"
     inkscape:pagecheckerboard="0"
     inkscape:document-units="mm"
     showgrid="false"
     inkscape:zoom="2.8090954"
     inkscape:cx="42.006405"
     inkscape:cy="11.213574"
     inkscape:window-width="930"
     inkscape:window-height="1000"
     inkscape:window-x="970"
     inkscape:window-y="20"
     inkscape:window-maximized="1"
     inkscape:current-layer="layer1" />
  <defs
     id="defs2">
    <inkscape:path-effect
       effect="fillet_chamfer"
       id="path-effect3176"
       is_visible="true"
       lpeversion="1"
       satellites_param="F,0,1,1,0,0,0,1 @ F,0,1,1,0,2.3239876,0,1 @ F,0,1,1,0,2.3239876,0,1 @ F,0,0,1,0,2.3239876,0,1 @ F,0,1,1,0,0,0,1"
       unit="px"
       method="auto"
       mode="F"
       radius="0"
       chamfer_steps="1"
       flexible="false"
       use_knot_distance="true"
       apply_no_radius="true"
       apply_with_radius="true"
       only_selected="false"
       hide_knots="false" />
  </defs>
  <g
     inkscape:label="Layer 1"
     inkscape:groupmode="layer"
     id="layer1"
     transform="translate(-107.59773,-158.03318)">
    <g
       id="g2469"
       transform="matrix(0.65411651,0.64400697,-0.65411651,0.64400697,150.94963,-15.849761)"
       style="stroke-width:1.08945">
      <path
         style="fill:none;stroke:#ffffff;stroke-width:2.17892;stroke-linecap:round;stroke-linejoin:round;stroke-miterlimit:4;stroke-dasharray:none;stroke-opacity:1;paint-order:normal"
         d="m 421.79883,613.24414 a 19.992333,19.992333 0 0 0 -19.99219,19.99219 19.992333,19.992333 0 0 0 19.99219,19.99219 19.992333,19.992333 0 0 0 17.73242,-10.78907 h 4.51953 a 19.992333,19.992333 0 0 0 17.73242,10.78907 19.992333,19.992333 0 0 0 19.99219,-19.99219 19.992333,19.992333 0 0 0 -19.99219,-19.99219 z"
         transform="scale(0.26458333)"
         id="path835" />
      <path
         id="rect1297"
         style="fill:none;stroke:#ffffff;stroke-width:0.576508;stroke-linecap:round;stroke-linejoin:round;stroke-miterlimit:4;stroke-dasharray:none;stroke-opacity:1;paint-order:normal"
         d="m 110.8508,165.29396 v 1.49965 h -1.50017 v 1.50016 h 1.50017 v 1.50017 h 1.50016 v -1.50017 h 1.50017 v -1.50016 h -1.50017 v -1.49965 h -1.50016"
         sodipodi:nodetypes="ccccccccccccc" />
      <circle
         style="fill:none;stroke:#ffffff;stroke-width:0.576508;stroke-linecap:round;stroke-linejoin:round;stroke-miterlimit:4;stroke-dasharray:none;stroke-opacity:1;paint-order:normal"
         id="path1805"
         cx="122.18016"
         cy="165.82411"
         r="0.58085358" />
      <circle
         style="fill:none;stroke:#ffffff;stroke-width:0.576508;stroke-linecap:round;stroke-linejoin:round;stroke-miterlimit:4;stroke-dasharray:none;stroke-opacity:1;paint-order:normal"
         id="circle1854"
         cx="122.18016"
         cy="169.26378"
         r="0.58085358" />
      <circle
         style="fill:none;stroke:#ffffff;stroke-width:0.576508;stroke-linecap:round;stroke-linejoin:round;stroke-miterlimit:4;stroke-dasharray:none;stroke-opacity:1;paint-order:normal"
         id="circle1927"
         cx="167.54395"
         cy="-123.89999"
         r="0.58085358"
         transform="rotate(90)" />
      <circle
         style="fill:none;stroke:#ffffff;stroke-width:0.576508;stroke-linecap:round;stroke-linejoin:round;stroke-miterlimit:4;stroke-dasharray:none;stroke-opacity:1;paint-order:normal"
         id="circle1929"
         cx="167.54395"
         cy="-120.46033"
         r="0.58085358"
         transform="rotate(90)" />
      <path
         id="path2109"
         style="opacity:1;fill:none;stroke:#ffffff;stroke-width:2.17892;stroke-linecap:round;stroke-linejoin:round;stroke-miterlimit:4;stroke-dasharray:none;stroke-opacity:1;paint-order:normal"
         d="m 434.16406,613.24414 c 0.26289,4.01932 3.59905,7.14531 7.62696,7.14648 4.0279,-10e-4 7.36406,-3.12716 7.62695,-7.14648"
         transform="scale(0.26458333)"
         sodipodi:nodetypes="ccc" />
    </g>
    <g
       id="use2471"
       transform="matrix(0.6507344,-0.64803285,0.6507344,0.64803285,-45.902233,134.54529)"
       style="stroke-width:1.08888">
      <path
         style="fill:none;stroke:#ffffff;stroke-width:2.17778;stroke-linecap:round;stroke-linejoin:round;stroke-miterlimit:4;stroke-dasharray:none;stroke-opacity:1;paint-order:normal"
         d="m 421.79883,613.24414 a 19.992333,19.992333 0 0 0 -19.99219,19.99219 19.992333,19.992333 0 0 0 19.99219,19.99219 19.992333,19.992333 0 0 0 17.73242,-10.78907 h 4.51953 a 19.992333,19.992333 0 0 0 17.73242,10.78907 19.992333,19.992333 0 0 0 19.99219,-19.99219 19.992333,19.992333 0 0 0 -19.99219,-19.99219 z"
         transform="scale(0.26458333)"
         id="path6057" />
      <path
         id="path6059"
         style="fill:#ffffff;fill-opacity:1;stroke:#ffffff;stroke-width:0.576206;stroke-linecap:round;stroke-linejoin:round;stroke-miterlimit:4;stroke-dasharray:none;stroke-opacity:1;paint-order:normal"
         d="m 110.8508,165.29396 v 1.49965 h -1.50017 v 1.50016 h 1.50017 v 1.50017 h 1.50016 v -1.50017 h 1.50017 v -1.50016 h -1.50017 v -1.49965 h -1.50016"
         sodipodi:nodetypes="ccccccccccccc" />
      <circle
         style="fill:#ffffff;fill-opacity:1;stroke:#ffffff;stroke-width:0.576206;stroke-linecap:round;stroke-linejoin:round;stroke-miterlimit:4;stroke-dasharray:none;stroke-opacity:1;paint-order:normal"
         id="circle6061"
         cx="122.18016"
         cy="165.82411"
         r="0.58085358" />
      <circle
         style="fill:#ffffff;fill-opacity:1;stroke:#ffffff;stroke-width:0.576206;stroke-linecap:round;stroke-linejoin:round;stroke-miterlimit:4;stroke-dasharray:none;stroke-opacity:1;paint-order:normal"
         id="circle6063"
         cx="122.18016"
         cy="169.26378"
         r="0.58085358" />
      <circle
         style="fill:#ffffff;fill-opacity:1;stroke:#ffffff;stroke-width:0.576206;stroke-linecap:round;stroke-linejoin:round;stroke-miterlimit:4;stroke-dasharray:none;stroke-opacity:1;paint-order:normal"
         id="circle6065"
         cx="167.54395"
         cy="-123.89999"
         r="0.58085358"
         transform="rotate(90)" />
      <circle
         style="fill:#ffffff;fill-opacity:1;stroke:#ffffff;stroke-width:0.576206;stroke-linecap:round;stroke-linejoin:round;stroke-miterlimit:4;stroke-dasharray:none;stroke-opacity:1;paint-order:normal"
         id="circle6067"
         cx="167.54395"
         cy="-120.46033"
         r="0.58085358"
         transform="rotate(90)" />
      <path
         id="path6069"
         style="opacity:1;fill:#ffffff;fill-opacity:1;stroke:#ffffff;stroke-width:2.17778;stroke-linecap:round;stroke-linejoin:round;stroke-miterlimit:4;stroke-dasharray:none;stroke-opacity:1;paint-order:normal"
         d="m 434.16406,613.24414 c 0.26289,4.01932 3.59905,7.14531 7.62696,7.14648 4.0279,-10e-4 7.36406,-3.12716 7.62695,-7.14648"
         transform="scale(0.26458333)"
         sodipodi:nodetypes="ccc" />
    </g>
    <path
       style="fill:none;stroke:#ffffff;stroke-width:0.529166;stroke-linecap:butt;stroke-linejoin:miter;stroke-miterlimit:4;stroke-dasharray:none;stroke-opacity:1"
       d="m 121.20601,163.93866 1.38513,-1.37946 a 2.3337575,2.3337575 179.99723 0 1 3.2935,-1.6e-4 l 1.00967,1.00534 a 2.333886,2.333886 179.9988 0 0 3.29359,-7e-5 l 1.00923,-1.00498 a 2.3335104,2.3335104 0.00341584 0 1 3.29333,1.9e-4 l 1.38462,1.37914"
       id="path2986"
       sodipodi:nodetypes="ccccc"
       inkscape:path-effect="#path-effect3176"
       inkscape:original-d="m 121.20601,163.93866 3.0318,-3.0194 4.30333,4.2849 4.30275,-4.28468 3.03119,3.01918" />
  </g>
</svg>
